<svg xmlns="http://www.w3.org/2000/svg" xmlns:xlink="http://www.w3.org/1999/xlink" version="1.1" x="0px" y="0px" viewBox="0 0 1024 1280" style="enable-background:new 0 0 1024 1024;" xml:space="preserve"><g><g><g><path d="M813.2,452.9c0,14.2,0,28.4,0,42.6c0,33.9,0,67.9,0,101.8c0,41.2,0,82.5,0,123.7c0,35.5,0,71,0,106.5     c0,17.3-0.5,34.7,0,52.1c0,0.2,0,0.5,0,0.7c10-10,20-20,30-30c-27.1,0-54.1,0-81.2,0c-43.3,0-86.7,0-130,0c-9.9,0-19.8,0-29.8,0     c10,10,20,20,30,30c0-40,0-80,0-120c0-26,0-51.9,0-77.9c0-17.9,0.7-35.6-2.7-53.3c-9-46.7-49.9-85.9-96.9-92.9     c-26.4-4-52-0.3-76,11.7c-20.6,10.4-38.6,28.2-49.5,48.4c-9.7,18-14.8,37.9-14.9,58.4c0,4.8,0,9.5,0,14.3c0,23.5,0,47.1,0,70.6     c0,46,0,92,0,138c0,0.9,0,1.8,0,2.7c10-10,20-20,30-30c-27.1,0-54.1,0-81.2,0c-43.3,0-86.7,0-130,0c-9.9,0-19.8,0-29.8,0     c10,10,20,20,30,30c0-14.2,0-28.4,0-42.6c0-33.9,0-67.9,0-101.8c0-41.2,0-82.5,0-123.7c0-35.5,0-71,0-106.5     c0-17.3,0.4-34.7,0-52.1c0-0.2,0-0.5,0-0.7c0-15.7-13.8-30.7-30-30c-16.3,0.7-30,13.2-30,30c0,14.2,0,28.4,0,42.6     c0,33.9,0,67.9,0,101.8c0,41.2,0,82.5,0,123.7c0,35.5,0,71,0,106.5c0,17.3-0.4,34.7,0,52.1c0,0.2,0,0.5,0,0.7     c0,16.2,13.7,30,30,30c27.1,0,54.1,0,81.2,0c43.3,0,86.7,0,130,0c9.9,0,19.8,0,29.8,0c16.2,0,30-13.7,30-30c0-26.5,0-53,0-79.6     c0-41,0-82,0-123c0-11.9-0.7-24.1,0.9-35.9c-0.4,2.7-0.7,5.3-1.1,8c1.1-7.6,3.1-14.9,6-22c-1,2.4-2,4.8-3,7.2     c2.2-5.3,4.9-10.3,8-15.1c0.7-1.1,1.5-2.1,2.2-3.2c2.9-4.3-5.3,6.2-1.1,1.4c1.9-2.1,3.7-4.3,5.7-6.3c1.8-1.8,3.8-3.6,5.8-5.3     c5.1-4.3-3.4,2.3-1.5,1.1c1.3-0.8,2.5-1.8,3.8-2.6c4.8-3.1,9.8-5.8,15.1-8c-2.4,1-4.8,2-7.2,3c7.1-2.9,14.4-4.9,22-6     c-2.7,0.4-5.3,0.7-8,1.1c8.3-1.1,16.6-1.1,24.9,0c-2.7-0.4-5.3-0.7-8-1.1c7.6,1.1,14.9,3.1,22,6c-2.4-1-4.8-2-7.2-3     c5.3,2.2,10.3,4.9,15.1,8c1.1,0.7,2.1,1.5,3.2,2.2c4.3,2.9-6.2-5.3-1.4-1.1c2.1,1.9,4.3,3.7,6.3,5.7c1.8,1.8,3.6,3.8,5.3,5.8     c4.3,5.1-2.3-3.4-1.1-1.5c0.8,1.3,1.8,2.5,2.6,3.8c3.1,4.8,5.8,9.8,8,15.1c-1-2.4-2-4.8-3-7.2c2.9,7.1,4.9,14.4,6,22     c-0.4-2.7-0.7-5.3-1.1-8c1.3,10.1,0.9,20.4,0.9,30.5c0,17.7,0,35.3,0,53c0,41.8,0,83.6,0,125.4c0,9.8,0,19.7,0,29.5     c0,16.2,13.7,30,30,30c27.1,0,54.1,0,81.2,0c43.3,0,86.7,0,130,0c9.9,0,19.8,0,29.8,0c16.2,0,30-13.7,30-30c0-14.2,0-28.4,0-42.6     c0-33.9,0-67.9,0-101.8c0-41.2,0-82.5,0-123.7c0-35.5,0-71,0-106.5c0-17.3,0.4-34.7,0-52.1c0-0.2,0-0.5,0-0.7     c0-15.7-13.8-30.7-30-30C827,423.7,813.2,436.1,813.2,452.9L813.2,452.9z"/></g></g><g><g><path d="M117.2,545.7c13.6-12.6,27.2-25.3,40.9-37.9c32.7-30.3,65.4-60.6,98.1-90.9     c39.4-36.5,78.8-73.1,118.2-109.6c34.1-31.6,68.1-63.2,102.2-94.8c16.6-15.4,33.6-30.4,49.8-46.2c0.2-0.2,0.5-0.4,0.7-0.6     c-14.1,0-28.3,0-42.4,0c14,12.6,28,25.2,42.1,37.9c33.7,30.3,67.3,60.6,101,90.9c40.6,36.5,81.2,73.1,121.7,109.6     c35.1,31.6,70.2,63.2,105.3,94.8c17.1,15.4,34.1,31,51.4,46.2c0.2,0.2,0.5,0.4,0.7,0.6c11.7,10.5,31.1,12.4,42.4,0     c10.5-11.5,12.5-31.2,0-42.4c-14-12.6-28-25.2-42.1-37.9c-33.7-30.3-67.3-60.6-101-90.9c-40.6-36.5-81.2-73.1-121.7-109.6     c-35.1-31.6-70.2-63.2-105.3-94.8c-17.1-15.4-34.1-31-51.4-46.2c-0.2-0.2-0.5-0.4-0.7-0.6c-12.4-11.2-30-11.5-42.4,0     c-13.6,12.6-27.2,25.3-40.9,37.9c-32.7,30.3-65.4,60.6-98.1,90.9c-39.4,36.5-78.8,73.1-118.2,109.6     c-34.1,31.6-68.1,63.2-102.2,94.8c-16.6,15.4-33.6,30.4-49.8,46.2c-0.2,0.2-0.5,0.4-0.7,0.6c-11.5,10.7-11.6,31.7,0,42.4     C87.1,557,104.9,557.1,117.2,545.7L117.2,545.7z"/></g></g></g><text x="0" y="1039" fill="#000000" font-size="5px" font-weight="bold" font-family="'Helvetica Neue', Helvetica, Arial-Unicode, Arial, Sans-serif">Created by shashank singh</text><text x="0" y="1044" fill="#000000" font-size="5px" font-weight="bold" font-family="'Helvetica Neue', Helvetica, Arial-Unicode, Arial, Sans-serif">from the Noun Project</text></svg>